<svg version="1.1" id="logo" xmlns="http://www.w3.org/2000/svg" xmlns:xlink="http://www.w3.org/1999/xlink" x="0px" y="0px"
	 viewBox="0 0 400 158" xml:space="preserve">
<g>
	<path d="M75.9,71.5c1.1,0,1.6,0.5,1.6,1.6v12.8c0,1.1-0.5,1.6-1.6,1.6H59.3v52.8c0,1.1-0.5,1.6-1.6,1.6H40.5
		c-1.1,0-1.6-0.5-1.6-1.6V87.4H22.3c-1.1,0-1.6-0.5-1.6-1.6V73c0-1.1,0.5-1.6,1.6-1.6H75.9z"/>
	<path d="M140.3,140.3c0.1,0.1,0.1,0.3,0.1,0.6c0,0.6-0.4,0.9-1.1,0.9h-18.6c-1.1,0-1.8-0.5-2.1-1.5c-0.2-0.7-0.6-2-1.3-4.1
		c-0.7-2-1.2-3.6-1.5-4.8H94.3c-0.3,1.1-0.8,2.7-1.5,4.8c-0.7,2-1.1,3.4-1.3,4.1c-0.4,1-1.1,1.5-2.1,1.5H71.7c-1.1,0-1.4-0.5-1-1.5
		L97.1,73c0.4-1,1.1-1.5,2.2-1.5h12.6c1.1,0,1.8,0.5,2.2,1.5L140.3,140.3z M98.7,117.4h12.9l-6.3-21.5c-0.9,2.8-2.2,6.8-3.8,12.1
		C99.9,113.4,99,116.5,98.7,117.4z"/>
	<path d="M163.9,142.7c-8.1,0-15-1.4-20.9-4.2c-0.9-0.4-1.4-1.2-1.4-2.4v-13.7c0-0.7,0.2-1.1,0.6-1.1c0.1,0,0.4,0.1,0.8,0.2
		c6.5,3.8,12.9,5.6,19.2,5.6c2.8,0,5.1-0.5,6.7-1.6c1.6-1.1,2.5-2.5,2.5-4.5c0-1.3-0.5-2.5-1.4-3.5c-1-1-2-1.8-3-2.3
		c-1.1-0.5-2.7-1.2-5-2.1c-6.9-2.8-12-5.8-15.4-9.1c-3.4-3.3-5.1-7.6-5.1-12.9c0-6.4,2.6-11.5,7.7-15.2c5.1-3.8,11.6-5.6,19.4-5.6
		c5.9,0,11.7,0.9,17.3,2.7c1,0.5,1.5,1.2,1.5,2.2v12.8c0,0.8-0.2,1.2-0.7,1.2c-0.1,0-0.3-0.1-0.7-0.2c-5.3-2.3-10.5-3.5-15.7-3.5
		c-2.6,0-4.7,0.5-6.1,1.4c-1.5,1-2.2,2.2-2.2,3.8c0,0.5,0.1,0.9,0.2,1.4c0.2,0.5,0.3,0.9,0.5,1.2s0.5,0.7,1,1
		c0.5,0.4,0.9,0.7,1.2,0.9c0.3,0.2,0.8,0.5,1.5,0.9c0.7,0.4,1.3,0.6,1.6,0.8c0.4,0.2,1,0.4,1.8,0.8c0.9,0.4,1.5,0.6,1.8,0.7
		c6.9,2.8,11.9,5.9,15.1,9.1c3.2,3.2,4.9,7.3,4.9,12.4c0,6.5-2.5,11.9-7.6,16.2C179.1,140.6,172.4,142.7,163.9,142.7z"/>
	<path d="M248.4,71.5c1.1,0,1.6,0.5,1.6,1.6v12.8c0,1.1-0.5,1.6-1.6,1.6h-16.6v52.8c0,1.1-0.5,1.6-1.6,1.6h-17.2
		c-1.1,0-1.6-0.5-1.6-1.6V87.4h-16.6c-1.1,0-1.6-0.5-1.6-1.6V73c0-1.1,0.5-1.6,1.6-1.6H248.4z"/>
	<path d="M257.5,141.8c-1.1,0-1.6-0.5-1.6-1.6V73c0-1.1,0.5-1.6,1.6-1.6h17.4c1.1,0,1.6,0.5,1.6,1.6v67.1c0,1.1-0.5,1.6-1.6,1.6
		H257.5z"/>
	<path d="M350,71.5c1.1,0,1.6,0.5,1.6,1.6v67.1c0,1.1-0.5,1.6-1.6,1.6h-11.7c-1,0-1.8-0.4-2.6-1.2l-30-37.1v36.7
		c0,1.1-0.5,1.6-1.6,1.6h-15.7c-1.1,0-1.6-0.5-1.6-1.6V73c0-1.1,0.5-1.6,1.6-1.6h11.7c1,0,1.8,0.4,2.6,1.2l30,37.5V73
		c0-1.1,0.5-1.6,1.6-1.6H350z"/>
	<path d="M371.6,70.5c2.9,0,5.4,1,7.4,2.9c2,1.9,3,4.4,3,7.4c0,2.3-1.3,5.9-3.8,10.8l-7.4,14.8c-0.5,1.1-1.3,1.6-2.4,1.6h-2.6
		c-1.1,0-1.7-0.4-1.7-1.3c0-0.3,0-0.6,0.1-0.8l4.7-15.9c-2.1-0.6-3.8-1.7-5.2-3.4c-1.4-1.7-2-3.6-2-5.8c0-2.8,1-5.2,3-7.2
		C366.7,71.5,369,70.5,371.6,70.5z"/>
</g>
<g transform="translate(0.000000,640.000000) scale(0.100000,-0.100000)">
	<path d="M2661.6,6228.6c-4.4-0.5-21-2-36.8-3.3c-56.9-5.1-86-15.9-134.2-50.3c-32.8-23.3-57.7-43.7-103.9-84.9l-36-32.4l-42.2-3.5
		c-194.7-15.9-476.7-13.8-790.8,6.2c-78.5,5.1-241.1,17.4-293.2,22.2c-233.9,21.8-275.7,26-575.2,59.2c-264,29-321.2,34.8-365,36.7
		c-30.7,1.2-33.4,0.7-48.3-6.1c-32.1-14.9-74.9-61-100-107.3c-19.8-36.6-26.2-59-26.9-93.3c-0.5-25.5,0.5-31.6,8.9-58.6
		c17.1-54.7,44.5-99.1,68.7-111.5c11.6-5.9,12.7-6,40.2-2.4c133.3,16.9,486.1,52.7,705.1,71.4c529.8,45.6,923.1,64.6,1259.1,61.1
		l163.4-1.7l26.5-20.1c59.2-44.4,118.8-68.7,185.8-76.1c11.9-1.3,232.4-5.8,489.8-9.9l468.3-7.3l0.1,6.3c0.1,7.1-0.9,7.4-32.4,13.7
		c-137.3,27.5-473.1,55.5-715.3,59.3l-116.9,1.8l-0.6,12c-1,20.1,1,20.9,50.2,23.7c74,4.2,372.7-3.2,547.6-13.8
		c81.5-4.9,179.5-10.1,218.1-12l69.8-3.3l0.1,6.8c0.1,6.8-0.7,7.1-50.5,17.9c-186,39.6-314.3,53.1-694.1,72.7
		c-49.2,2.6-98.6,5.5-109.2,6.6c-19.5,2-19.8,2-21.8,10.5c-1.3,4.9-1.4,11.7-0.2,15.5c1.8,6.2,3.1,6.7,20.8,7.2
		c25,0.9,257-9.3,328.4-14.2c108.3-7.4,496.8-38,532.4-42c16.3-1.7,16.8-1.7,18,5.1c1.2,5.4,0.4,7.1-4.2,8.2
		c-108.8,26.4-330.2,63.5-507,84.7c-76.2,9.4-355.7,40.1-364.9,40.3c-3.5,0.1-7.3,15.1-5.8,22.7c1.5,6.5,2.9,7,22.5,8.5
		c27,1.9,161.4-4.1,240.7-10.6c127.3-10.7,240.9-25,479.5-60.2c83.2-12.3,153.2-21.6,155.4-20.8c2.5,0.8,3.9,3.7,3.4,6.2
		c-0.5,3.3-9.4,7.5-29.1,14.2c-181.5,62.1-405.9,108.8-648.5,135.2C2866.2,6223.4,2681.5,6230.9,2661.6,6228.6z"/>
</g>
</svg>